<svg version="1.1" id="Layer_1" xmlns="http://www.w3.org/2000/svg" x="0" y="0" viewBox="0 0 132 265.999"><style type="text/css">.st1{fill:#4c4c4e}</style><g opacity=".1"><path class="st1" d="M0 245.468l10.384 20.53h1.121L0 243.253zm22 19.949v-.526l-22-43.5v2.217l21.439 42.39h.56zm99.615.582L132 245.467v-2.216L120.494 266zm-45.12 0h1.12l10.386-20.53 10.383 20.53h1.12l-11.503-22.746zm-44 0h1.12L44 245.467 54.385 266h1.12L44 243.252z"/><path class="st1" d="M88 221.392L66 264.89l-22-43.5-22 43.5V266h.56L44 223.607l21.44 42.392h1.12L88 223.607l21.44 42.392h1.12L132 223.607v-2.216l-22 43.5z"/><path class="st1" d="M88 197.891l.56 1.108L110 156.607l21.44 42.392L110 241.392 88.56 199l-.56 1.108 22 43.499 22-43.5v-2.216l-22-43.5z"/><path class="st1" d="M121.504 199L110 176.251 98.494 199 110 221.746 121.504 199zM110 178.466L120.383 199 110 219.532l-10.385-20.533L110 178.467zM87.44 199v-.001zm-9.934 0L66 176.251 54.494 199 66 221.746 77.506 199zM66 178.466L76.384 199 66 219.532l-10.385-20.533L66 178.467zM88.56 199v-.001zm-45.12-.001z"/><path class="st1" d="M66 241.392L44.56 199l-.56 1.108 22 43.499 22-43.5-.56-1.107zm0-84.785l21.44 42.392.56-1.108-22-43.5-22 43.5.56 1.108z"/><path class="st1" d="M87.44 199l.56 1.108.56-1.108v-.001L88 197.89l-.56 1.108zM44 200.108L43.44 199 22 241.392.56 198.999 22 156.607l21.44 42.392.56-1.108-22-43.5-22 43.5v2.216l22 43.5zm.56-1.109z"/><path class="st1" d="M10.494 199L22 221.745 33.506 199 22 176.252 10.494 199zM22 219.531l-10.385-20.533L22 178.467 32.384 199 22 219.532zM43.44 199l.56 1.108.56-1.108v-.001L44 197.89l-.56 1.108zM0 110.252v2.216l10.384 20.531L0 153.531v2.216l11.506-22.748zM21.44 133L0 175.39v2.216l22-43.5zm.56-1.109l-22-43.5v2.217l21.44 42.391zM76.495 133L88 155.744 99.505 133l-11.504-22.746L76.495 133zM88 153.53L77.616 133 88 112.467 98.384 133l-10.383 20.532z"/><path class="st1" d="M132 90.608v-2.216l-22 43.499-22-43.5-22 43.5-22-43.5-22 43.5.56 1.108L44 90.607l21.44 42.392L44 175.392l-21.44-42.393-.56 1.109 22 43.499 22-43.5 22 43.5 22-43.5 22 43.5v-2.216l-21.44-42.392L132 90.608zm-44 84.784l-21.44-42.393L88 90.607l21.44 42.392L88 175.392z"/><path class="st1" d="M132 112.467v-2.216L120.494 133 132 155.747v-2.216l-10.385-20.532zM55.506 133L44 110.251 32.494 133 44 155.746 55.506 133zM44 112.466L54.384 133 44 153.532l-10.385-20.533L44 112.467zm-22 21.642l.56-1.109-.56-1.108-.56 1.108zm66-69.217l.56 1.108L110 23.607l21.44 42.392L110 108.392 88.56 66 88 67.108l22 43.499 22-43.5v-2.216l-22-43.5zM87.44 66v-.001z"/><path class="st1" d="M121.504 66L110 43.251 98.494 66 110 88.746 121.504 66zM110 45.466L120.383 66 110 86.532 99.615 65.999 110 45.467zM66 23.607l21.44 42.392.56-1.108-22-43.5-22 43.5.56 1.108zM88.56 66v-.001zm-45.12-.001z"/><path class="st1" d="M54.494 66L66 88.745 77.506 66 66 43.252 54.494 66zM66 86.531L55.615 65.999 66 45.467 76.384 66 66 86.532z"/><path class="st1" d="M66 108.392L44.56 66 44 67.108l22 43.499 22-43.5L87.44 66zM88.56 66v-.001L88 64.89l-.56 1.108.56 1.109.56-1.108zm-44-.001zM44 67.108L43.44 66 22 108.392.56 65.999 22 23.607l21.44 42.392.56-1.108-22-43.5-22 43.5v2.216l22 43.5z"/><path class="st1" d="M10.494 66L22 88.745 33.506 66 22 43.252 10.494 66zM22 86.531L11.615 65.999 22 45.467 32.384 66 22 86.532zM44.56 66v-.001L44 64.89l-.56 1.108.56 1.109.56-1.108zM10.384 0L0 20.532v2.216L11.505 0zM22 0h-.561L0 42.39v2.217l22-43.5M55.505 0h-1.12L44 20.532 33.616 0h-1.12L44 22.746z"/><path class="st1" d="M22 1.107l22 43.5L66 1.108V0h-.56L44 42.392 22.56 0H22m110 20.531L121.616 0h-1.121L132 22.747zM110 .308v.8l22 43.5v-2.216L110.56 0h-.559zM99.505 0h-1.121L88.001 20.53 77.616 0h-1.12L88 22.745z"/><path class="st1" d="M66 1.108l22 43.499 22-43.499V0h-.56L88 42.392 66.56 0H66"/></g></svg>